<svg width="54" height="54" viewBox="0 0 54 54" fill="none" xmlns="http://www.w3.org/2000/svg">
<path d="M48.165 54H5.83498C2.61246 54 0 51.3875 0 48.165V5.83498C0 2.61246 2.61246 0 5.83498 0H48.1649C51.3875 0 53.9999 2.61246 53.9999 5.83498V48.1649C54 51.3875 51.3875 54 48.165 54Z" fill="black"/>
<path d="M48.165 54H5.83498C2.61246 54 0 51.3875 0 48.165V5.83498C0 2.61246 2.61246 0 5.83498 0H48.1649C51.3875 0 53.9999 2.61246 53.9999 5.83498V48.1649C54 51.3875 51.3875 54 48.165 54Z" fill="white"/>
<path d="M29.6245 26.9999C29.6245 33.4266 24.4501 38.6364 18.0671 38.6364C11.6842 38.6364 6.50977 33.4266 6.50977 26.9999C6.50977 20.5731 11.6841 15.3633 18.0671 15.3633C24.45 15.3633 29.6245 20.5731 29.6245 26.9999Z" fill="#2C9CF1"/>
<path d="M42.3033 27.0007C42.3033 33.0504 39.7162 37.9545 36.5247 37.9545C33.3333 37.9545 30.7461 33.0504 30.7461 27.0007C30.7461 20.951 33.3333 16.0469 36.5247 16.0469C39.7162 16.0469 42.3033 20.9511 42.3033 27.0007Z" fill="#2C9CF1"/>
<path d="M47.4886 27.0017C47.4886 32.4219 46.5786 36.8159 45.4562 36.8159C44.3337 36.8159 43.4238 32.4219 43.4238 27.0017C43.4238 21.5815 44.3337 17.1875 45.4562 17.1875C46.5787 17.1875 47.4886 21.5815 47.4886 27.0017Z" fill="#2C9CF1"/>
</svg>
