<svg width="54" height="54" viewBox="0 0 54 54" fill="none" xmlns="http://www.w3.org/2000/svg">
<g clip-path="url(#clip0_1_687)">
<path d="M52.418 54H1.58203C0.708328 54 0 53.2917 0 52.418V1.58203C0 0.708328 0.708328 0 1.58203 0H52.418C53.2917 0 54 0.708328 54 1.58203V52.418C54 53.2917 53.2917 54 52.418 54Z" fill="white"/>
<path d="M46.8269 9.09236C46.7328 9.01527 46.614 8.97266 46.4921 8.97266C46.4231 8.97266 46.3556 8.98605 46.2916 9.01242L7.30501 25.0657C7.11475 25.144 6.98681 25.3275 6.9789 25.5331C6.97099 25.7387 7.08458 25.9314 7.26831 26.0241L17.2315 31.0513L35.3016 20.9703C35.3816 20.9255 35.4677 20.9029 35.558 20.9029C35.725 20.9029 35.8786 20.9792 35.9792 21.112C36.1373 21.3207 36.1171 21.6176 35.9323 21.8028L24.1388 33.6241L22.6234 43.0884L22.6327 43.0791C22.6407 43.0612 22.645 43.0558 22.6453 43.0665L28.791 36.9209L39.2928 44.9176C39.3841 44.9871 39.4976 45.0254 39.6124 45.0254C39.6765 45.0254 39.7394 45.0139 39.7995 44.991C39.9708 44.9259 40.0943 44.7796 40.1296 44.5998L47.0097 9.60167C47.0472 9.41088 46.9772 9.21576 46.8269 9.09236Z" fill="#2C9CF1"/>
</g>
<defs>
<clipPath id="clip0_1_687">
<rect width="54" height="54" rx="6" fill="white"/>
</clipPath>
</defs>
</svg>
